<svg viewBox="0 0 200 200" xmlns="http://www.w3.org/2000/svg" aria-hidden="true">
  <defs>
    <radialGradient id="glow" cx="50%" cy="50%" r="60%">
      <stop offset="0%" stop-color="#60a5fa" stop-opacity=".55"/>
      <stop offset="100%" stop-color="#60a5fa" stop-opacity="0"/>
    </radialGradient>
    <linearGradient id="fur" x1="0" y1="0" x2="1" y2="1">
      <stop offset="0%" stop-color="#60a5fa"/>
      <stop offset="100%" stop-color="#3b82f6"/>
    </linearGradient>
    <linearGradient id="ear" x1="0" y1="0" x2="1" y2="1">
      <stop offset="0%" stop-color="#93c5fd"/>
      <stop offset="100%" stop-color="#60a5fa"/>
    </linearGradient>
  </defs>
  <circle cx="100" cy="100" r="90" fill="url(#glow)" opacity=".35"/>
  <g>
    <path d="M105 125 C145 135, 165 165, 150 185 C130 170,115 155,105 140 Z" fill="url(#fur)"/>
    <path d="M130 170 C138 172, 146 178, 150 185 C150 185,141 180,133 178 Z" fill="#DBEAFE" opacity=".9"/>
  </g>
  <path d="M45 120 L100 60 L155 120 Q100 105 45 120 Z" fill="url(#fur)"/>
  <path d="M82 68 L66 40 L100 60 Z" fill="url(#ear)"/>
  <path d="M118 68 L134 40 L100 60 Z" fill="url(#ear)"/>
  <path d="M70 118 Q100 102 130 118 Q112 138 100 142 Q88 138 70 118 Z" fill="#F8FAFC"/>
  <circle cx="100" cy="120" r="4.5" fill="#0F172A"/>
  <circle cx="85" cy="104" r="4" fill="#0F172A"/>
  <circle cx="115" cy="104" r="4" fill="#0F172A"/>
</svg>
